<?xml version="1.0" encoding="utf-8"?>
<!-- Generator: Adobe Illustrator 24.2.0, SVG Export Plug-In . SVG Version: 6.00 Build 0)  -->
<svg version="1.1" id="图层_1" xmlns="http://www.w3.org/2000/svg" xmlns:xlink="http://www.w3.org/1999/xlink" x="0px" y="0px"
	 viewBox="0 0 10.8 9.6" style="enable-background:new 0 0 10.8 9.6;" xml:space="preserve">
<style type="text/css">
	.st0{fill:#F7F6F5;fill-opacity:0.9;}
</style>
<path class="st0" d="M7.6,8.4L2.9,3.6C2.7,3.4,2.7,3,2.9,2.8l0,0c0.3-0.3,0.7-0.3,1,0l4.7,4.7c0.2,0.2,0.2,0.7,0,0.9l0,0
	C8.3,8.6,7.9,8.6,7.6,8.4z"/>
<path class="st0" d="M8.6,3.7L3.8,8.5C3.6,8.7,3.1,8.6,2.9,8.4l0,0c-0.3-0.3-0.3-0.7,0-1l4.7-4.7c0.2-0.2,0.7-0.2,1,0.1l0,0
	C8.8,3,8.8,3.5,8.6,3.7z"/>
</svg>
