<?xml version="1.0" encoding="utf-8"?>
<!-- Generator: Adobe Illustrator 24.2.0, SVG Export Plug-In . SVG Version: 6.00 Build 0)  -->
<svg version="1.1" id="图层_1" xmlns="http://www.w3.org/2000/svg" xmlns:xlink="http://www.w3.org/1999/xlink" x="0px" y="0px"
	 viewBox="0 0 10.8 9.6" style="enable-background:new 0 0 10.8 9.6;" xml:space="preserve">
<style type="text/css">
	.st0{fill:#F7F6F5;fill-opacity:0.9;}
</style>
<path class="st0" d="M8.3,6.3H1.6C1.3,6.3,1,6,1,5.6v0c0-0.4,0.3-0.7,0.7-0.7h6.7C8.7,4.9,9,5.2,9,5.6v0C9,6,8.7,6.3,8.3,6.3z"/>
<path class="st0" d="M8.3,3.7H1.6C1.3,3.7,1,3.4,1,3.1v0c0-0.4,0.3-0.7,0.7-0.7h6.7C8.7,2.4,9,2.7,9,3.1v0C9,3.4,8.7,3.7,8.3,3.7z"
	/>
<path class="st0" d="M8.3,8.9H1.6C1.3,8.9,1,8.5,1,8.2v0c0-0.4,0.3-0.7,0.7-0.7h6.7C8.7,7.5,9,7.8,9,8.2v0C9,8.5,8.7,8.9,8.3,8.9z"
	/>
</svg>
